<?xml version="1.0" encoding="utf-8"?>
<!-- Generator: Adobe Illustrator 20.1.0, SVG Export Plug-In . SVG Version: 6.00 Build 0)  -->
<svg version="1.1" xmlns="http://www.w3.org/2000/svg" xmlns:xlink="http://www.w3.org/1999/xlink" x="0px" y="0px"
	 viewBox="0 0 1815.2 275.4" style="enable-background:new 0 0 1815.2 275.4;" xml:space="preserve">
<style type="text/css">
	.st0{fill:#FFFFFF;}
	.st1{display:none;}
	.st2{display:inline;fill:none;stroke:#6BCCDF;stroke-miterlimit:10;}
	.st3{display:inline;fill:none;stroke:#6BCCDF;stroke-width:0.9991;stroke-miterlimit:10;}
	.st4{display:inline;fill:none;stroke:#6BCCDF;stroke-width:1.0006;stroke-miterlimit:10;}
</style>
<g id="Dead_Zone">
</g>
<g id="Layer_1">
	<g>
		<path class="st0" d="M344.9,148.1v-0.4c0-31.3,22.8-49.9,45.8-49.9c17.8,0,29.3,9.6,36.7,20.4V60.5h14.3v135.3h-14.3v-19.3
			c-7.8,11.5-19.1,21.3-36.7,21.3C367.7,197.8,344.9,179.6,344.9,148.1z M427.9,147.9v-0.4c0-22.1-16.9-36.9-34.7-36.9
			c-18.5,0-33.7,13.7-33.7,36.9v0.4c0,22.6,15.6,37.1,33.7,37.1C411.1,185,427.9,170,427.9,147.9z"/>
		<path class="st0" d="M515.8,185.6c13.2,0,22.4-5.4,30.2-13.5l8.9,8c-9.6,10.7-21.3,18-39.5,18c-26.3,0-47.8-20.2-47.8-50
			c0-27.8,19.5-50,46-50c28.4,0,44.7,22.6,44.7,50.8c0,1.3,0,2.8-0.2,5h-76C484.1,173.9,498.9,185.6,515.8,185.6z M543.7,142.2
			c-1.7-17.4-11.7-32.2-30.6-32.2c-16.5,0-29.1,13.7-31.1,32.2H543.7z"/>
		<path class="st0" d="M575.2,183.5l7.2-10.2c10.4,7.8,21.9,12.2,33.2,12.2c11.5,0,19.8-5.9,19.8-15.2V170
			c0-9.6-11.3-13.3-23.9-16.9c-15-4.3-31.7-9.5-31.7-27.1v-0.4c0-16.5,13.7-27.4,32.6-27.4c11.7,0,24.6,4.1,34.5,10.6l-6.5,10.7
			c-8.9-5.7-19.1-9.3-28.4-9.3c-11.3,0-18.5,5.9-18.5,13.9v0.4c0,9.1,11.9,12.6,24.6,16.5c14.8,4.4,30.8,10.2,30.8,27.4v0.4
			c0,18.2-15,28.7-34.1,28.7C601.2,197.6,586,192.2,575.2,183.5z"/>
		<path class="st0" d="M675.9,63.2h16.3V79h-16.3V63.2z M676.8,99.9h14.3v95.8h-14.3V99.9z"/>
		<path class="st0" d="M723.1,212.4l6.5-11.1c10.9,8,23.2,12.2,36.9,12.2c21.1,0,34.8-11.7,34.8-34.1v-11.3
			c-8.3,11.1-20,20.2-37.6,20.2c-23,0-45-17.2-45-44.9v-0.4c0-28,22.2-45.2,45-45.2c18,0,29.7,8.9,37.4,19.3V99.9h14.3v79.1
			c0,14.8-4.4,26.1-12.2,33.9c-8.5,8.5-21.3,12.8-36.5,12.8C750.7,225.8,735.9,221.3,723.1,212.4z M801.7,143.3v-0.4
			c0-19.6-17-32.4-35.2-32.4c-18.2,0-33.2,12.6-33.2,32.2v0.4c0,19.3,15.4,32.6,33.2,32.6C784.7,175.7,801.7,162.6,801.7,143.3z"/>
		<path class="st0" d="M847.3,99.9h14.3v16.7c6.3-10.4,16.3-18.7,32.8-18.7c23.2,0,36.7,15.6,36.7,38.4v59.5h-14.3v-56
			c0-17.8-9.6-28.9-26.5-28.9c-16.5,0-28.7,12-28.7,30v54.9h-14.3V99.9z"/>
	</g>
	<g>
		<path class="st0" d="M44.9,260.1H18c-0.9,0-1.7-0.8-1.7-1.7v-26.9c0-0.9,0.8-1.7,1.7-1.7h26.9c0.9,0,1.7,0.8,1.7,1.7v26.9
			C46.5,259.3,45.8,260.1,44.9,260.1z"/>
		<path class="st0" d="M246.8,80.2c-7.1-15.9-17.1-29.2-29.8-39.6c-12.4-10.2-27.2-17.8-43.8-22.6c-16-4.6-33.4-6.9-51.6-6.9H17.3
			c-0.5,0-0.9,0.4-0.9,0.9v185.2c0,0.5,0.4,0.9,0.9,0.9H74c2.3,0,4.2,1.9,4.2,4.2l0,56.8c0,0.5,0.4,0.9,0.9,0.9h42.6
			c18.3,0,35.6-2.4,51.7-7.1c16.6-4.9,31.3-12.5,43.7-22.7c12.6-10.4,22.7-23.7,29.8-39.4c7-15.6,10.6-34.1,10.6-55.2
			C257.4,114.5,253.8,95.9,246.8,80.2z M108.6,103.4c0.8-0.8,1.8-1.2,3-1.2h19.5c6,0,11.6,0.7,16.7,2.2c4.5,1.3,8.3,3.2,11.6,5.9
			c3,2.5,5.4,5.7,7.2,9.6c1.8,4.1,2.8,9.4,2.8,15.6c0,6.2-0.9,11.4-2.8,15.5c-1.8,4-4.1,7.1-7.2,9.6c-3.3,2.7-7.1,4.7-11.7,6
			c-5.1,1.5-10.7,2.2-16.6,2.2h-19.5c-2.3,0-4.2-1.9-4.2-4.2l0-58.2C107.4,105.3,107.8,104.2,108.6,103.4z M108.6,199.3
			c0.8-0.8,1.8-1.2,3-1.2h19.5c8.8,0,17.1-1.2,24.9-3.4c8.3-2.4,15.7-6.3,22-11.5c6.5-5.3,11.6-12.1,15.3-20.2
			c3.5-7.9,5.3-17.1,5.3-27.5c0-10.3-1.8-19.6-5.3-27.5c-3.6-8.1-8.8-14.9-15.3-20.3c-6.3-5.2-13.7-9-22.1-11.4
			c-7.7-2.2-16.1-3.3-24.8-3.3H79c-0.2,0-0.5,0.1-0.6,0.3c-0.2,0.2-0.3,0.4-0.3,0.6l0,90.8c0,1.1-0.4,2.2-1.2,3
			c-0.8,0.8-1.8,1.2-3,1.2H49.8c-2.3,0-4.2-1.9-4.2-4.2V44.5c0-2.3,1.9-4.2,4.2-4.2h71.9c15.5,0,30.1,1.9,43.5,5.8
			c12.8,3.7,24,9.4,33.3,17.1c9.3,7.6,16.3,17.1,21.6,29c5.3,11.9,8,26.5,8,43.4c0,16.9-2.7,31.4-8,43.2
			c-5.3,11.8-12.4,21.2-21.7,28.8c-9.4,7.7-20.6,13.5-33.4,17.3c-13.4,3.9-28,5.9-43.4,5.9h-10.1c-2.3,0-4.2-1.9-4.2-4.2l0-24.3
			C107.4,201.1,107.8,200.1,108.6,199.3z"/>
	</g>
	<g>
		<path class="st0" d="M1076.5,189.4v3.5l-29.9,4.5c-5.7,0.8-5.7-3.7-5.7-3.7v-12.6c-6.5,12-21.6,16.5-31.1,16.5
			c-23,0-43.3-18.1-43.3-50.2c0-32.7,21.6-47.4,50-47.4c9.4,0,17.9,2.2,24.4,6.1V67.2c0-7.1-2-9.2-10.4-12.2v-3.5l35.6-7.5v132
			C1066.2,186,1068.2,188.4,1076.5,189.4z M1040.9,137.4c0-25.6-12.6-34-24.2-34c-14.8,0-21.4,11.2-21.4,42.1
			c0,32.7,6.7,44.9,23.2,44.9c13.8,0,22.4-10.2,22.4-24.4V137.4z"/>
		<path class="st0" d="M1131.3,192.3v3.5h-41.7v-3.5c7.7-2.4,8.1-11,8.1-21.4v-45.2c0-6.9-2-9.8-10.4-14.2v-3.5l35.6-8.1v71
			C1122.9,182.3,1123.9,190.3,1131.3,192.3z M1108.3,83.7c-7.7,0-13.8-6.1-13.8-13.8c0-7.7,6.1-13.8,13.8-13.8s14,6.1,14,13.8
			C1122.3,77.6,1116,83.7,1108.3,83.7z"/>
		<path class="st0" d="M1216.7,186.6c0,0-7.7,11-28.5,11c-24.6,0-36.8-9.4-36.8-9.4v-25.6h3.5c3.1,7.9,9.6,31.5,33.4,31.5
			c14.4,0,16.9-18.3,1.4-28.5l-20.5-12.4c-19.7-12-25-28.5-13.8-43.1c0,0,7.7-10.2,28.1-10.2c23.4,0,33.6,6.1,33.6,6.1v22.8h-3.5
			c-2.6-7.1-9.2-25.4-30.1-25.4c-13.2,0-18.9,15.7-1.2,26.8l20.5,12.8C1220.8,154.3,1226.9,171.9,1216.7,186.6z"/>
		<path class="st0" d="M1300.3,176l3.1,1.8c-4.1,9.6-16.5,19.7-30.1,19.7c-16.1,0-25.6-6.5-25.6-31.1v-61.2h-10.2l-0.6-3.5h10.8
			V74.5l25.4-4.3v31.5h24.2l-0.8,3.5H1273v60.6c0,11.4,4.9,17.3,15.1,17.3C1294,183.1,1298.4,179.1,1300.3,176z"/>
		<path class="st0" d="M1357,192.3v3.5h-41.7v-3.5c7.7-2.4,8.1-11,8.1-21.4v-45.2c0-6.9-2-9.8-10.4-14.2v-3.5l35.6-8.1v71
			C1348.7,182.3,1349.7,190.3,1357,192.3z M1334,83.7c-7.7,0-13.8-6.1-13.8-13.8c0-7.7,6.1-13.8,13.8-13.8s14,6.1,14,13.8
			C1348.1,77.6,1341.8,83.7,1334,83.7z"/>
		<path class="st0" d="M1415.2,192.3v3.5h-41.7v-3.5c7.7-2.2,8.1-10.8,8.1-21.2V68.2c0-7.1-2-10.2-10.2-13.2v-3.5l35.6-7.5v127.1
			C1407.1,182.3,1408.1,190.5,1415.2,192.3z"/>
		<path class="st0" d="M1471.1,192.3v3.5h-41.7v-3.5c7.7-2.2,8.1-10.8,8.1-21.2V68.2c0-7.1-2-10.2-10.2-13.2v-3.5L1463,44v127.1
			C1463,182.3,1464,190.5,1471.1,192.3z"/>
		<path class="st0" d="M1576.9,146.9h-64.7c1.6,19.9,11.8,30.3,25.4,33.4c11,2.4,27.3-1.6,32.3-11.2l3.5,1.8
			c-3.3,10.6-15.3,26.6-42.5,26.6c-26.6,0-44.9-24.6-44.9-48.4c0-28.7,19.5-49.2,47.6-49.2C1563.1,99.9,1576.9,115.2,1576.9,146.9z
			 M1552.1,143.5c0-25.6-8.3-40.1-19.5-40.1c-12,0-20.3,20.5-20.3,40.1H1552.1z"/>
		<path class="st0" d="M1664.4,103.6c6.3,5.5,6.9,15.3,1.4,21.4c-5.5,6.3-14.8,7.1-21.4,1.6c-3.1-2.8-4.7-6.3-4.7-10
			c0-2.2-8.3-0.2-15.9,12v42.3c0,11.4,1,19.3,8.3,21.4v3.5h-42.1v-3.5c7.9-2.4,8.1-10.8,8.1-21.4v-45.2c0-6.9-1.8-10-10.2-14.2v-3.5
			l35.8-8.1v23c10.8-16.9,19.1-19.9,24-22C1652.2,99.1,1659.9,99.9,1664.4,103.6z"/>
		<path class="st0" d="M1780.7,101.8v3.5c-4.3,0-13.6,0.4-26.6,31.7l-31.1,82c-5.3,13.8-11.4,19.5-15.3,22.6
			c-3.7,3.1-10.8,4.3-15.7,2c-7.1-3.3-10.2-11.6-7.1-18.7c3.3-7.1,11.6-10.4,18.7-7.1c3.7,1.6,5.9,4.9,6.9,8.3c0.8,2.4,5.7,1,9-7.5
			l7.7-20.9c-12.6-29.1-38.4-84.4-38.4-84.4c-3.3-7.9-9.8-7.9-12.8-7.9v-3.5h48v3.5c-10.6,0-5.3,12.4-5.3,12.4l21.6,46l10.8-27.5
			c0,0,13.4-31.1-10.2-30.9v-3.5H1780.7z"/>
		<path class="st0" d="M1787.6,196.8c-9.6,0-17.3-7.5-17.3-17.1c0-9.6,7.7-17.3,17.3-17.3c9.4,0,17.1,7.7,17.1,17.3
			C1804.6,189.2,1796.9,196.8,1787.6,196.8z"/>
	</g>
</g>
<g id="Layer_2" class="st1">
	<line class="st2" x1="646.6" y1="731" x2="646.6" y2="-466.1"/>
	<line class="st2" x1="1439.2" y1="731" x2="1439.2" y2="-466.1"/>
	<line class="st2" x1="465.4" y1="731" x2="465.4" y2="-466.1"/>
	<line class="st2" x1="481.1" y1="731" x2="481.1" y2="-466.1"/>
	<line class="st2" x1="515.1" y1="731" x2="515.1" y2="-466.1"/>
	<line class="st2" x1="530.7" y1="731" x2="530.7" y2="-466.1"/>
	<line class="st2" x1="562.7" y1="731" x2="562.7" y2="-466.1"/>
	<line class="st2" x1="547.1" y1="731" x2="547.1" y2="-466.1"/>
	<line class="st2" x1="431.9" y1="731" x2="431.9" y2="-466.1"/>
	<line class="st2" x1="447.7" y1="731" x2="447.7" y2="-466.1"/>
	<line class="st3" x1="0" y1="203" x2="1910.7" y2="203"/>
	<line class="st3" x1="0" y1="186.7" x2="1910.7" y2="186.7"/>
	<line class="st3" x1="0" y1="162" x2="1910.7" y2="162"/>
	<line class="st3" x1="0" y1="109.3" x2="1910.7" y2="109.3"/>
	<line class="st3" x1="0" y1="169.3" x2="1910.7" y2="169.3"/>
	<line class="st3" x1="0" y1="153.2" x2="1910.7" y2="153.2"/>
	<line class="st3" x1="0" y1="117.2" x2="1910.7" y2="117.2"/>
	<line class="st3" x1="0" y1="101.2" x2="1910.7" y2="101.2"/>
	<line class="st3" x1="0" y1="83.5" x2="1910.7" y2="83.5"/>
	<line class="st3" x1="0" y1="67.2" x2="1910.7" y2="67.2"/>
</g>
</svg>
